<mxfile host="app.diagrams.net" modified="2023-09-17T23:57:43.422Z" agent="Mozilla/5.0 (Windows NT 10.0; Win64; x64) AppleWebKit/537.36 (KHTML, like Gecko) Chrome/116.0.0.0 Safari/537.36" etag="1sxI9C4rBQGbQIjusZjS" version="21.7.4" type="github">
  <diagram name="Página-1" id="wZ6IoTYDzUvtT-8nd7Mi">
    <mxGraphModel dx="880" dy="470" grid="1" gridSize="10" guides="1" tooltips="1" connect="1" arrows="1" fold="1" page="1" pageScale="1" pageWidth="827" pageHeight="1169" math="0" shadow="0">
      <root>
        <mxCell id="0" />
        <mxCell id="1" parent="0" />
        <mxCell id="Ye6Lir1v8M7o-369fLMi-2" style="edgeStyle=orthogonalEdgeStyle;rounded=0;orthogonalLoop=1;jettySize=auto;html=1;" edge="1" parent="1" source="Ye6Lir1v8M7o-369fLMi-1">
          <mxGeometry relative="1" as="geometry">
            <mxPoint x="419" y="290" as="targetPoint" />
          </mxGeometry>
        </mxCell>
        <mxCell id="Ye6Lir1v8M7o-369fLMi-1" value="Juega y Pograma" style="ellipse;whiteSpace=wrap;html=1;aspect=fixed;fillColor=#e1d5e7;strokeColor=#9673a6;" vertex="1" parent="1">
          <mxGeometry x="334" y="40" width="170" height="170" as="geometry" />
        </mxCell>
        <mxCell id="Ye6Lir1v8M7o-369fLMi-4" style="edgeStyle=orthogonalEdgeStyle;rounded=0;orthogonalLoop=1;jettySize=auto;html=1;" edge="1" parent="1" source="Ye6Lir1v8M7o-369fLMi-3">
          <mxGeometry relative="1" as="geometry">
            <mxPoint x="419" y="500" as="targetPoint" />
          </mxGeometry>
        </mxCell>
        <mxCell id="Ye6Lir1v8M7o-369fLMi-3" value="¡ Hola !&lt;br&gt;¡ Bienvenidos !, te presento el juego donde aprenderas a programar con ejercicios que ayudaran a mantener tu aprendizaje cada día" style="rounded=0;whiteSpace=wrap;html=1;fillColor=#dae8fc;strokeColor=#6c8ebf;" vertex="1" parent="1">
          <mxGeometry x="296" y="300" width="246" height="120" as="geometry" />
        </mxCell>
        <mxCell id="Ye6Lir1v8M7o-369fLMi-5" value="¡ Comenzemos!&amp;nbsp;" style="rounded=0;whiteSpace=wrap;html=1;fillColor=#dae8fc;strokeColor=#6c8ebf;" vertex="1" parent="1">
          <mxGeometry x="291" y="500" width="246" height="70" as="geometry" />
        </mxCell>
      </root>
    </mxGraphModel>
  </diagram>
</mxfile>
